<?xml version="1.0" encoding="utf-8"?>

<!-- Generator: Adobe Illustrator 25.2.0, SVG Export Plug-In . SVG Version: 6.00 Build 0)  -->

<svg version="1.1" id="peer-reviewed_cache538" focusable="false"

	 xmlns="http://www.w3.org/2000/svg" xmlns:xlink="http://www.w3.org/1999/xlink" x="0px" y="0px" viewBox="0 0 841.9 1190.6"

	 style="enable-background:new 0 0 841.9 1190.6;" xml:space="preserve">

<style type="text/css">

	.st0{fill:#F68212;}

</style>

<path class="st0" d="M420.9,630.4C336.8,553.2,228,507.6,105.2,507.6v385.9c122.8,0,231.5,49.1,315.7,122.8

	c84.2-77.2,192.9-122.8,315.7-122.8V507.6C613.9,507.6,505.1,553.2,420.9,630.4z M420.9,279.6c-38.6,0-66.6,31.6-66.6,66.6

	s31.6,66.6,66.6,66.6s66.6-31.6,66.6-66.6S459.5,279.6,420.9,279.6 M420.9,458.5c-63.1,0-112.3-49.1-112.3-112.3

	S357.8,234,420.9,234s112.3,49.1,112.3,112.3S484.1,458.5,420.9,458.5 M420.9,177.8c-112.3,0-207,70.2-249.1,168.4

	c42.1,98.2,136.8,168.4,249.1,168.4s207-70.2,249.1-168.4C627.9,248,533.2,177.8,420.9,177.8z"/>

</svg>
